<?xml version="1.0" encoding="utf-8"?>
<!-- Generator: Adobe Illustrator 16.0.0, SVG Export Plug-In . SVG Version: 6.00 Build 0)  -->
<!DOCTYPE svg PUBLIC "-//W3C//DTD SVG 1.1//EN" "http://www.w3.org/Graphics/SVG/1.1/DTD/svg11.dtd">
<svg version="1.1" id="Layer_1" xmlns="http://www.w3.org/2000/svg" xmlns:xlink="http://www.w3.org/1999/xlink" x="0px" y="0px"
	 width="117px" height="30px" viewBox="0 0 117 30" enable-background="new 0 0 117 30" xml:space="preserve">
<g>
	<path fill="#2A8757" d="M12.009,11.081c0.008,0.011,0.016,0.022,0.024,0.031c0.425,0.527,1.157,0.209,1.726,0.221
		c1.367,0.022,2.717,0.997,3.621,1.958c0.415,0.441,0.757,0.884,1.047,1.353c-1.02,4.842-2.243,9.729-2.638,9.925
		c-0.737,0.367-13.611,0.63-13.819-0.104c0.033-1.576,0.911-5.771,1.853-9.842c1.323,0.049,2.709,0.414,3.888,0.949
		c0.966,0.439,1.988,1.011,2.583,1.9c0.414,0.624,0.243,2.43,1.196,2.463c0.648,0.025,1.038-0.781,1.035-1.552
		c0-0.248-0.02-0.478-0.039-0.641c-0.193-1.624-1.8-2.828-3.167-3.554c-0.715-0.381-1.524-0.701-2.322-0.884
		C6.11,13.1,5.135,13.119,4.212,13.1C5.19,8.96,6.121,5.5,6.121,5.5h13.808c0.086,0.829-0.367,3.557-1.002,6.824
		c-0.641-0.773-1.445-1.466-2.367-1.883c-0.978-0.439-3.217-1.059-4.289-0.601C11.787,10.044,11.722,10.694,12.009,11.081z"/>
	<path fill="#2A8757" d="M28.302,11.081c0.008,0.011,0.016,0.022,0.024,0.031c0.425,0.527,1.157,0.209,1.726,0.221
		c1.367,0.022,2.718,0.997,3.62,1.958c0.415,0.441,0.757,0.884,1.047,1.353c-1.019,4.842-2.242,9.729-2.637,9.925
		c-0.737,0.367-13.612,0.63-13.819-0.104c0.033-1.576,0.911-5.771,1.853-9.842c1.323,0.049,2.71,0.414,3.889,0.949
		c0.967,0.439,1.988,1.011,2.582,1.9c0.414,0.624,0.243,2.43,1.196,2.463c0.649,0.025,1.039-0.781,1.036-1.552
		c0-0.248-0.02-0.478-0.039-0.641c-0.193-1.624-1.801-2.828-3.167-3.554c-0.715-0.381-1.524-0.701-2.322-0.884
		c-0.887-0.205-1.862-0.185-2.784-0.205c0.978-4.139,1.908-7.6,1.908-7.6h13.808c0.085,0.829-0.368,3.557-1.002,6.824
		c-0.641-0.773-1.444-1.466-2.367-1.883c-0.978-0.439-3.217-1.059-4.289-0.601C28.081,10.044,28.015,10.694,28.302,11.081z"/>
	<path fill="#2A8757" d="M77.734,11.081c0.008,0.011,0.017,0.022,0.024,0.031c0.427,0.527,1.157,0.209,1.727,0.221
		c1.367,0.022,2.717,0.997,3.62,1.958c0.414,0.441,0.757,0.884,1.047,1.353c-1.019,4.842-2.242,9.729-2.638,9.925
		c-0.737,0.367-13.611,0.63-13.819-0.104c0.034-1.576,0.911-5.771,1.854-9.842c1.322,0.049,2.709,0.414,3.888,0.949
		c0.966,0.439,1.988,1.011,2.582,1.9c0.414,0.624,0.243,2.43,1.196,2.463c0.648,0.025,1.038-0.781,1.035-1.552
		c0-0.248-0.02-0.478-0.039-0.641c-0.193-1.624-1.801-2.828-3.167-3.554c-0.716-0.381-1.524-0.701-2.322-0.884
		c-0.888-0.205-1.861-0.185-2.783-0.205c0.977-4.139,1.907-7.6,1.907-7.6h13.808c0.087,0.829-0.367,3.557-1.002,6.824
		c-0.641-0.773-1.444-1.466-2.366-1.883c-0.979-0.439-3.218-1.059-4.289-0.601C77.514,10.044,77.447,10.694,77.734,11.081z"/>
	<path fill="#2A8757" d="M64.945,24.707c-0.005,0.002-0.008-0.063-0.014-0.063c-0.133-0.039-0.279-0.104-0.437-0.123
		c-1.157-0.141-1.795-2.008-2.28-3.091c-0.758-1.685-1.483-4.91-2.448-4.91c-0.784,0-1.38,0.78-0.968,1.989
		c0.504,1.494,1.869,4.493,2.921,6.338c-4.048,0.16-10.447,0.272-10.593-0.244c0.069-3.43,4.15-19.103,4.15-19.103h0.028
		c0.238,0,0.53,0.102,0.887,0.146c1.157,0.141,1.79,1.925,2.273,3.007c0.753,1.69,1.474,4.873,2.438,4.876
		c0.781,0,1.381-0.663,0.976-1.873c-0.5-1.475-1.829-4.499-2.87-6.156h10.078C69.314,7.709,65.683,24.339,64.945,24.707z"/>
	<path fill="#2A8757" d="M101.948,5.5H88.14c0,0-4.081,15.672-4.149,19.102c0.097,0.34,2.902,0.396,5.962,0.398
		c0,0,0.483-3.896,1.019-5.572c0.364-1.141,0.834-1.252,1.356-1.142c0.215,0.073,0.529,0.227,0.529,0.704
		c0,0.193-0.052,0.433-0.182,0.744c-0.909,2.166-0.983,5.126-0.983,5.126l-0.014,0.061c2.996-0.042,5.797-0.047,6.131-0.213
		C98.546,24.34,102.177,7.709,101.948,5.5z M95.34,8.936l-0.696,3.322c-0.08,0.376-0.568,0.594-1.091,0.483
		c-0.472-0.096-0.812-0.431-0.812-0.773c0-0.036,0.002-0.071,0.011-0.107l0.696-3.322c0.079-0.378,0.565-0.597,1.088-0.486
		c0.475,0.099,0.814,0.433,0.814,0.776C95.351,8.864,95.348,8.899,95.34,8.936z"/>
	<path fill="#2A8757" d="M52.792,5.5H38.984c0,0-4.082,15.672-4.151,19.102c0.208,0.735,13.082,0.541,13.819,0.175
		C49.39,24.409,53.021,7.709,52.792,5.5z M46.023,9.233l-2.739,11.649c-0.08,0.339-0.524,0.523-0.961,0.422
		c-0.434-0.103-0.751-0.467-0.671-0.807L44.394,8.85c0.08-0.339,0.524-0.524,0.958-0.422c0.389,0.094,0.685,0.392,0.685,0.698
		C46.037,9.162,46.031,9.198,46.023,9.233z"/>
	<path fill="#2A8757" d="M116.057,18.943c-0.729,3.082-1.404,5.487-1.679,5.625c-0.37,0.183-3.761,0.341-7.092,0.359
		c-0.447,0.005-0.893,0.005-1.325,0c-2.834-0.014-5.311-0.006-5.401-0.326c0.068-3.43,4.15-19.102,4.15-19.102h6.732
		c-0.265,2.485-0.724,5.244-1.348,8.078c-0.328,1.486-0.713,2.858-1.151,4.242c-0.303,0.953-0.522,1.896-0.838,2.845
		c-0.161,0.485-0.359,0.934-0.579,1.395c-0.158,0.331,0.033,0.73,0.296,0.942c0.42,0.336,0.786,0.015,1.102-0.307
		c0.251-0.255,0.534-0.478,0.799-0.718c0.218-0.198,0.442-0.389,0.673-0.572c0.114-0.091,0.229-0.18,0.347-0.266
		c0.055-0.041,0.338-0.189,0.349-0.248c-0.004,0.027-0.007,0.055-0.016,0.08c0.006-0.003,0.012-0.009,0.016-0.012
		C112.563,19.956,114.246,19.259,116.057,18.943z"/>
</g>
</svg>
